<?xml version="1.0" encoding="utf-8"?>
<!-- Generator: Adobe Illustrator 22.0.1, SVG Export Plug-In . SVG Version: 6.00 Build 0)  -->
<svg version="1.1" id="Layer_1" xmlns="http://www.w3.org/2000/svg" xmlns:xlink="http://www.w3.org/1999/xlink" x="0px" y="0px"
	 viewBox="0 0 20 20" style="enable-background:new 0 0 20 20;" xml:space="preserve">
<style type="text/css">
	.st0{fill:#B2B2B2;}
</style>
<path class="st0" d="M10,4C9,4,9,5,9,5v0.1C7,5.5,5.5,7,5.1,9H5c0,0-1,0-1,1s1,1,1,1h0.1C5.5,13,7,14.5,9,14.9V15c0,0,0,1,1,1
	s1-1,1-1v-0.1c2-0.4,3.5-1.9,3.9-3.9H15c0,0,1,0,1-1s-1-1-1-1h-0.1C14.5,7,13,5.5,11,5.1V5C11,5,11,4,10,4z M10,6.5
	c1.9,0,3.5,1.6,3.5,3.5s-1.6,3.5-3.5,3.5S6.5,11.9,6.5,10S8.1,6.5,10,6.5z M10,8.3c-0.9,0-1.7,0.8-1.7,1.7c0,1,0.7,1.7,1.7,1.8
	c1,0,1.8-0.8,1.8-1.8l0,0C11.7,9,11,8.3,10,8.3z"/>
</svg>
