<?xml version="1.0" encoding="utf-8"?>
<!-- Generator: Adobe Illustrator 22.0.1, SVG Export Plug-In . SVG Version: 6.00 Build 0)  -->
<svg version="1.1" id="Layer_1" xmlns:svg="http://www.w3.org/2000/svg"
	 xmlns="http://www.w3.org/2000/svg" xmlns:xlink="http://www.w3.org/1999/xlink" x="0px" y="0px" viewBox="0 0 20 20"
	 style="enable-background:new 0 0 20 20;" xml:space="preserve">
<style type="text/css">
	.st0{fill:#B2B2B2;}
</style>
<path class="st0" d="M8.5,4C6,4,4,6,4,8.5S6,13,8.5,13c0.9,0,1.7-0.2,2.3-0.7h0.1l3.4,3.4c0.2,0.2,0.4,0.3,0.7,0.3c0.6,0,1-0.4,1-1
	c0-0.3-0.1-0.5-0.3-0.7l-3.4-3.4v-0.1c0.5-0.6,0.7-1.4,0.7-2.3C13,6,11,4,8.5,4z M8.5,5.5c1.7,0,3,1.3,3,3s-1.3,3-3,3s-3-1.3-3-3
	S6.8,5.5,8.5,5.5z"/>
</svg>
