<?xml version="1.0" encoding="utf-8"?>
<!-- Generator: Adobe Illustrator 22.0.1, SVG Export Plug-In . SVG Version: 6.00 Build 0)  -->
<svg version="1.1"
	 id="Layer_1" inkscape:version="0.91 r13725" sodipodi:docname="shrink.svg" xmlns:cc="http://creativecommons.org/ns#" xmlns:dc="http://purl.org/dc/elements/1.1/" xmlns:inkscape="http://www.inkscape.org/namespaces/inkscape" xmlns:rdf="http://www.w3.org/1999/02/22-rdf-syntax-ns#" xmlns:sodipodi="http://sodipodi.sourceforge.net/DTD/sodipodi-0.dtd" xmlns:svg="http://www.w3.org/2000/svg"
	 xmlns="http://www.w3.org/2000/svg" xmlns:xlink="http://www.w3.org/1999/xlink" x="0px" y="0px" viewBox="0 0 20 20"
	 style="enable-background:new 0 0 20 20;" xml:space="preserve">
<style type="text/css">
	.st0{fill:#B2B2B2;}
</style>
<sodipodi:namedview  bordercolor="#666666" borderopacity="1" gridtolerance="10" guidetolerance="10" id="namedview15" inkscape:bbox-nodes="true" inkscape:bbox-paths="true" inkscape:current-layer="Layer_1" inkscape:cx="4.9501082" inkscape:cy="10.854747" inkscape:object-nodes="true" inkscape:object-paths="true" inkscape:pageopacity="0" inkscape:pageshadow="2" inkscape:snap-bbox="true" inkscape:snap-bbox-edge-midpoints="true" inkscape:snap-bbox-midpoints="true" inkscape:window-height="908" inkscape:window-maximized="0" inkscape:window-width="2021" inkscape:window-x="0" inkscape:window-y="0" inkscape:zoom="1" objecttolerance="10" pagecolor="#ffffff" showgrid="false">
	<inkscape:grid  id="grid4147" type="xygrid"></inkscape:grid>
</sodipodi:namedview>
<path id="path7" class="st0" d="M4.2,3.5c-0.4,0-0.8,0.3-0.8,0.7c0,0.2,0.1,0.4,0.2,0.5L6,7L4,8.5V9h4c0.5,0,1-0.5,1-1V4H8.5L7,6
	L4.8,3.7C4.6,3.6,4.4,3.5,4.2,3.5z M15.7,3.5c-0.2,0-0.4,0.1-0.5,0.2L13,6l-1.5-2H11v4c0,0.5,0.5,1,1,1h4V8.5L14,7l2.2-2.2
	c0.3-0.3,0.3-0.8,0-1.1C16.2,3.6,15.9,3.5,15.7,3.5z M4,11v0.5L6,13l-2.2,2.2c-0.3,0.3-0.3,0.8,0,1.1s0.8,0.3,1.1,0L7,14l1.5,2H9v-4
	c0-0.5-0.5-1-1-1H4z M12,11c-0.5,0-1,0.5-1,1v4h0.5l1.5-2l2.2,2.2c0.3,0.3,0.8,0.3,1.1,0s0.3-0.8,0-1.1L14,13l2-1.5V11H12z"/>
</svg>
