<?xml version="1.0" encoding="utf-8"?>
<!-- Generator: Adobe Illustrator 22.0.1, SVG Export Plug-In . SVG Version: 6.00 Build 0)  -->
<svg version="1.1"
	 id="Layer_1" inkscape:version="0.91 r13725" sodipodi:docname="fullscreen.svg" xmlns:cc="http://creativecommons.org/ns#" xmlns:dc="http://purl.org/dc/elements/1.1/" xmlns:inkscape="http://www.inkscape.org/namespaces/inkscape" xmlns:rdf="http://www.w3.org/1999/02/22-rdf-syntax-ns#" xmlns:sodipodi="http://sodipodi.sourceforge.net/DTD/sodipodi-0.dtd" xmlns:svg="http://www.w3.org/2000/svg"
	 xmlns="http://www.w3.org/2000/svg" xmlns:xlink="http://www.w3.org/1999/xlink" x="0px" y="0px" viewBox="0 0 20 20"
	 style="enable-background:new 0 0 20 20;" xml:space="preserve">
<style type="text/css">
	.st0{fill:#B2B2B2;}
</style>
<sodipodi:namedview  bordercolor="#666666" borderopacity="1" gridtolerance="10" guidetolerance="10" id="namedview4181" inkscape:bbox-nodes="true" inkscape:bbox-paths="true" inkscape:current-layer="Layer_1" inkscape:cx="14.69828" inkscape:cy="10.526689" inkscape:object-nodes="true" inkscape:object-paths="true" inkscape:pageopacity="0" inkscape:pageshadow="2" inkscape:snap-bbox="true" inkscape:window-height="695" inkscape:window-maximized="0" inkscape:window-width="1471" inkscape:window-x="697" inkscape:window-y="298" inkscape:zoom="11.313708" objecttolerance="10" pagecolor="#ffffff" showgrid="false">
	<inkscape:grid  id="grid6076" type="xygrid"></inkscape:grid>
</sodipodi:namedview>
<path id="path4169" class="st0" d="M5,4C4.5,4,4,4.5,4,5v1v3h0.5l1.3-1.7c1,0.8,2,1.7,3.1,2.7c-1.1,1.1-2.1,2-3.1,2.7L4.5,11H4v4
	c0,0.5,0.5,1,1,1h4v-0.5l-1.7-1.3c0.8-1,1.7-2.1,2.7-3.1c1.1,1.1,2,2.1,2.7,3.2L11,15.5V16h3h1c0.5,0,1-0.5,1-1v-1v-3h-0.5l-1.3,1.7
	c-1-0.8-2.1-1.7-3.2-2.7c1.1-1,2.2-1.9,3.2-2.7L15.5,9H16V5c0-0.5-0.5-1-1-1h-4v0.5l1.7,1.3c-0.8,1-1.7,2.1-2.7,3.1
	C9,7.8,8.1,6.8,7.3,5.8L9,4.5V4H6H5z"/>
</svg>
