<?xml version="1.0" encoding="utf-8"?>
<!-- Generator: Adobe Illustrator 22.0.1, SVG Export Plug-In . SVG Version: 6.00 Build 0)  -->
<svg version="1.1" id="Layer_1" xmlns:svg="http://www.w3.org/2000/svg"
	 xmlns="http://www.w3.org/2000/svg" xmlns:xlink="http://www.w3.org/1999/xlink" x="0px" y="0px" viewBox="0 0 20 20"
	 style="enable-background:new 0 0 20 20;" xml:space="preserve">
<style type="text/css">
	.st0{fill:#FFFFFF;}
	.st1{opacity:0.2;fill:#B2B2B2;enable-background:new    ;}
</style>
<path class="st0" d="M10,2v3.3c2.6,0,4.7,2.1,4.7,4.7H18C18,5.6,14.4,2,10,2z"/>
<path class="st1" d="M10,2C6.8,2,3.7,4.1,2.6,7.1c-1.2,2.9-0.5,6.5,1.9,8.7c2.4,2.4,6.4,2.9,9.4,1.2c2.5-1.4,4.2-4.2,4.2-7
	c-1.1,0-2.2,0-3.3,0c0.1,2.2-1.7,4.3-3.8,4.6c-2.3,0.4-4.6-0.8-5.3-2.9C4.8,9.7,5.6,7.1,7.6,6C8.3,5.6,9.1,5.3,10,5.3
	C10,4.2,10,3.1,10,2z"/>
</svg>
